<svg xmlns="http://www.w3.org/2000/svg" width="1024" height="1024" viewBox="0 0 1024 1024" version="1.1"><path d="M 782 449.500 L 782 505 795 505 L 808 505 808 483.177 L 808 461.355 825.250 461.427 L 842.500 461.500 843.110 452 C 843.446 446.775, 843.554 442.050, 843.351 441.500 C 843.118 440.870, 836.510 440.609, 825.490 440.795 L 808 441.089 808 428.045 L 808 415 829 415 L 850 415 850 404.500 L 850 394 816 394 L 782 394 782 449.500 M 564.275 449.697 L 564.500 504.500 578 504.500 L 591.500 504.500 591.227 486.250 L 590.955 468 602.727 467.994 C 617.510 467.987, 624.637 466.831, 632.387 463.183 C 640.163 459.522, 646.476 453.360, 649.831 446.155 C 652.087 441.310, 652.466 439.140, 652.482 431 C 652.498 422.668, 652.156 420.763, 649.699 415.500 C 646.061 407.705, 640.233 401.846, 632.617 398.327 L 626.500 395.500 595.275 395.197 L 564.049 394.895 564.275 449.697 M 667.241 449.672 L 667.500 504.500 693.500 504.425 C 717.206 504.356, 720.202 504.152, 727.458 502.121 C 746.962 496.659, 760.288 482.280, 764.571 462.077 C 769.651 438.115, 760.315 412.993, 742.439 402.517 C 731.293 395.985, 729.230 395.656, 696.741 395.232 L 666.983 394.843 667.241 449.672 M 591 431.608 L 591 448.216 602.250 447.837 C 618.369 447.294, 624.414 443.784, 625.696 434.227 C 626.524 428.060, 625.289 423.520, 621.880 420.187 C 617.944 416.339, 612.441 415, 600.557 415 L 591 415 591 431.608 M 693 449.137 L 693 482.275 704.750 481.739 C 716.913 481.185, 722.769 479.725, 728.121 475.914 C 737.078 469.536, 741.377 452.057, 737.430 438.066 C 733.143 422.872, 722.044 416, 701.790 416 L 693 416 693 449.137 M 420.766 440.916 L 417.500 443.832 417.189 462.916 L 416.879 482 386.689 482.006 C 369.183 482.009, 354.952 482.441, 352.814 483.035 C 350.787 483.598, 347.975 485.430, 346.564 487.106 L 344 490.153 344 517.061 L 344 543.968 346.917 547.234 L 349.834 550.500 383.358 550.788 L 416.882 551.076 417.191 570.622 L 417.500 590.168 420.766 593.084 C 423.250 595.302, 425.015 596, 428.139 596 C 432.173 596, 432.732 595.520, 459.373 569.168 C 474.293 554.410, 491.338 537.647, 497.251 531.918 C 507.766 521.728, 508.002 521.401, 508.018 517 L 508.036 512.500 471.768 476.660 C 451.821 456.948, 434.612 440.185, 433.527 439.410 C 430.114 436.970, 424.434 437.640, 420.766 440.916 M 242 656.410 L 242 698 250.500 698 L 259 698 259 683.608 L 259 669.216 270.250 668.732 C 283.976 668.142, 287.442 667.124, 293.313 661.956 C 301.892 654.404, 304.521 639.808, 299.184 629.357 C 296.624 624.343, 289.927 618.409, 285.065 616.846 C 283.104 616.216, 272.613 615.502, 261.750 615.260 L 242 614.819 242 656.410 M 259.218 641.750 L 259.500 653.500 263 653.833 C 269.352 654.437, 276.927 652.967, 279.686 650.593 C 281.766 648.805, 282.401 647.205, 282.762 642.852 C 283.153 638.146, 282.881 636.975, 280.859 634.630 C 278.155 631.496, 273.119 630.059, 264.718 630.024 L 258.937 630 259.218 641.750" stroke="none" fill="#fa3d41" fill-rule="evenodd"/><path d="M 535.678 279.019 C 522.670 282.922, 509.827 295.258, 504.708 308.767 C 502.561 314.431, 502.532 315.373, 502.225 387.437 L 501.914 460.374 510.686 469.187 C 515.511 474.034, 519.805 478, 520.229 478 C 520.653 478, 521 442.664, 521 399.475 C 521 324.449, 521.086 320.705, 522.931 315.456 C 525.635 307.764, 530.057 302.610, 536.792 299.303 L 542.500 296.500 669 296.500 C 787.241 296.500, 795.707 296.613, 798.676 298.237 C 804.903 301.644, 883.174 378.670, 886.333 384.500 L 888.500 388.500 888.500 535.500 C 888.500 675.090, 888.408 682.763, 886.680 687.720 C 884.275 694.616, 877.428 702.140, 871.067 704.876 L 866.074 707.024 703.287 706.762 L 540.500 706.500 536 703.839 C 530.023 700.305, 526.593 696.553, 523.804 690.500 L 521.500 685.500 521 620.682 L 520.500 555.864 511.189 565.359 L 501.879 574.854 502.221 631.177 C 502.550 685.385, 502.642 687.735, 504.676 693.748 C 509.758 708.773, 520.827 719.682, 536 724.618 C 541.184 726.305, 550.542 726.413, 699 726.500 C 785.625 726.551, 860.413 726.289, 865.195 725.916 C 877.181 724.984, 884.956 721.280, 893.864 712.258 C 900.928 705.104, 905.267 697.537, 907.017 689.324 C 907.702 686.110, 907.954 634.431, 907.772 534.500 L 907.500 384.500 904.326 377.799 C 900.707 370.161, 902.403 371.940, 850.612 321.471 C 830.874 302.237, 813.121 285.410, 811.162 284.078 C 809.202 282.746, 805.435 280.833, 802.789 279.828 C 798.215 278.090, 791.601 278.004, 668.239 278.086 C 596.883 278.133, 537.230 278.553, 535.678 279.019 M 172 313 C 145.277 313.469, 143.251 313.634, 139.500 315.648 C 133.581 318.827, 128.551 324.178, 125.345 330.706 L 122.500 336.500 122.208 388.250 L 121.916 440 129.958 440 L 138 440 138.022 390.250 C 138.042 343.866, 138.170 340.222, 139.909 336.394 C 141.296 333.340, 142.907 331.739, 146.202 330.144 C 150.528 328.050, 151.674 328, 195.066 328.006 C 224.349 328.009, 240.854 328.387, 243.470 329.113 C 246.558 329.971, 250.610 333.339, 261.714 344.279 C 270.139 352.580, 276.809 360.040, 277.994 362.487 C 279.928 366.482, 280 368.617, 280 421.668 L 280 476.704 277.730 480.102 C 274.618 484.760, 269.747 486.997, 262.708 486.998 L 256.916 487 257.208 494.750 L 257.500 502.500 266.027 502.360 C 279.725 502.135, 288.294 496.796, 293.891 485 L 296.500 479.500 296.818 425.500 C 297.152 368.963, 296.846 363.637, 292.806 355.525 C 291.681 353.264, 283.395 344.133, 273.908 334.698 C 251.386 312.298, 253.429 313.186, 223.500 312.798 C 210.850 312.634, 187.675 312.725, 172 313 M 159.177 367.250 C 159.355 367.938, 163.312 383.913, 167.970 402.750 L 176.441 437 187.123 437 L 197.804 437 200.506 425.250 C 201.991 418.788, 204.420 408.403, 205.903 402.173 L 208.600 390.846 213.400 411.673 C 216.040 423.128, 218.429 433.512, 218.708 434.750 C 219.197 436.912, 219.634 436.999, 229.858 436.985 L 240.500 436.971 248.893 402.735 C 253.509 383.906, 257.495 367.938, 257.750 367.250 C 258.099 366.309, 256.007 366, 249.277 366 L 240.339 366 237.076 381.750 C 230.769 412.189, 229.713 417.046, 229.461 416.774 C 229.265 416.562, 221.150 380.815, 218.446 368.250 C 217.988 366.121, 217.482 366, 209.048 366 C 201.418 366, 200.062 366.252, 199.631 367.750 C 198.863 370.420, 191.319 403.667, 189.875 410.750 C 189.174 414.187, 188.276 416.662, 187.880 416.250 C 187.484 415.837, 186.023 409.875, 184.634 403 C 183.244 396.125, 181.444 387.575, 180.634 384 C 179.823 380.425, 178.642 374.913, 178.009 371.750 L 176.858 366 167.856 366 C 161.148 366, 158.936 366.319, 159.177 367.250 M 84.950 458.223 C 80.893 460.323, 77.407 463.066, 75.321 465.801 C 68.933 474.177, 69 473.306, 69 547.644 C 69 613.277, 69.051 615.056, 71.067 620.213 C 73.627 626.762, 79.796 633.236, 86.035 635.920 C 90.520 637.849, 92.834 637.960, 130.134 638.023 L 169.500 638.091 169.500 630.795 L 169.500 623.500 131 623 C 101.540 622.617, 91.952 622.188, 90.165 621.169 C 88.881 620.437, 86.978 617.962, 85.937 615.669 C 84.142 611.716, 84.043 608.105, 84.022 545.984 C 84.001 484.419, 84.110 480.263, 85.827 477.062 C 89.655 469.925, 89.100 469.997, 139.984 470.022 C 182.154 470.042, 185.794 470.180, 189.500 471.896 C 191.953 473.032, 199.556 479.901, 209.156 489.656 C 227.368 508.162, 226.612 506.385, 225.762 528.676 C 225.481 536.032, 225.480 544.082, 225.760 546.565 L 226.269 551.079 233.885 550.790 L 241.500 550.500 241.460 528 C 241.408 498.400, 242.423 500.687, 219.136 477.717 C 209.354 468.068, 199.447 459.203, 196.973 457.884 L 192.500 455.500 141.904 455.215 L 91.308 454.931 84.950 458.223 M 114.268 508.250 C 114.533 508.938, 119.748 517.114, 125.856 526.420 C 132.549 536.617, 136.638 543.769, 136.146 544.420 C 135.124 545.771, 112.593 580.046, 111.606 581.750 C 111.046 582.716, 113.227 583, 121.205 583 L 131.527 583 138.454 571.750 C 142.263 565.563, 145.892 559.724, 146.517 558.775 C 147.493 557.293, 148.820 558.884, 155.902 570.025 L 164.150 583 174.075 583 C 179.534 583, 184 582.808, 184 582.573 C 184 582.339, 181.819 578.851, 179.153 574.823 C 176.487 570.796, 170.889 562.235, 166.712 555.799 L 159.119 544.098 167.662 530.799 C 172.361 523.485, 177.735 515.415, 179.603 512.866 C 181.471 510.317, 183 507.955, 183 507.616 C 183 507.277, 178.387 507.005, 172.750 507.010 L 162.500 507.020 155.999 517.663 C 152.424 523.517, 149.049 528.315, 148.499 528.326 C 147.950 528.337, 144.575 523.563, 141 517.717 L 134.500 507.088 124.143 507.044 C 116.253 507.011, 113.901 507.298, 114.268 508.250 M 206.909 567.527 C 200.636 569.496, 193.704 575.867, 190.306 582.786 L 187.500 588.500 187.500 653 L 187.500 717.500 190.469 723.359 C 193.735 729.805, 198.908 734.788, 205.924 738.245 L 210.500 740.500 272 740.500 C 333.077 740.500, 333.532 740.485, 338.217 738.321 C 344.843 735.260, 352.346 727.897, 355.142 721.714 L 357.500 716.500 357.500 665.500 L 357.500 614.500 354.990 609.766 C 351.455 603.096, 319.872 571.397, 314 568.625 C 309.623 566.558, 308.158 566.494, 260.500 566.293 C 220.196 566.123, 210.685 566.342, 206.909 567.527 M 209.299 583.960 C 207.538 585.033, 205.288 587.394, 204.299 589.206 C 202.623 592.275, 202.500 596.665, 202.500 653.500 C 202.500 713.052, 202.548 714.582, 204.535 717.965 C 205.655 719.870, 208.130 722.345, 210.035 723.465 C 213.412 725.448, 214.968 725.500, 271.031 725.500 C 325.726 725.500, 328.772 725.405, 332.844 723.569 C 335.764 722.253, 337.903 720.315, 339.564 717.482 L 342 713.324 342 667.287 C 342 641.967, 341.703 619.731, 341.339 617.875 C 340.832 615.284, 337.288 611.051, 326.089 599.659 C 318.065 591.496, 310.285 584.184, 308.800 583.409 C 306.589 582.255, 297.613 582.001, 259.300 582.004 C 214.647 582.007, 212.353 582.097, 209.299 583.960" stroke="none" fill="#677c83" fill-rule="evenodd"/></svg>