<svg xmlns="http://www.w3.org/2000/svg" width="1024" height="1024" viewBox="0 0 1024 1024" version="1.1"><path d="M 259 344.500 L 259 422 278 422 L 297 422 297 397.140 L 297 372.280 315.750 371.722 C 328.297 371.348, 336.485 370.627, 340.500 369.543 C 365.820 362.706, 380.230 344.232, 380.300 318.520 C 380.373 292.226, 365.490 273.900, 339.746 268.583 C 333.574 267.308, 324.978 267, 295.542 267 L 259 267 259 344.500 M 402 344.518 L 402 422.179 440.750 421.710 C 481.468 421.217, 484.339 420.934, 498.490 416.022 C 513.169 410.926, 528.269 398.496, 535.511 385.548 C 543.630 371.029, 547.018 352.844, 545.040 334.401 C 543.277 317.956, 539.112 306.668, 530.658 295.422 C 522.158 284.115, 506.848 274.591, 489.500 269.820 C 482.013 267.761, 478.950 267.595, 441.750 267.239 L 402 266.857 402 344.518 M 567 344.500 L 567 422 586.500 422 L 606 422 606 392.500 L 606 363 635 363 L 664 363 664 348 L 664 333 635 333 L 606 333 606 316 L 606 299 639 299 L 672 299 672 283 L 672 267 619.500 267 L 567 267 567 344.500 M 297 320 L 297 342 309.557 342 C 325.198 342, 330.173 340.827, 335 336 C 342.700 328.300, 342.847 311.017, 335.274 303.763 C 330.220 298.922, 326.340 298, 311.032 298 L 297 298 297 320 M 440 344.500 L 440 390 453.750 389.985 C 462.474 389.976, 469.844 389.418, 473.913 388.459 C 494.228 383.670, 505 368.438, 505 344.500 C 505 330.030, 501.484 320.193, 493.334 311.863 C 484.531 302.865, 472.092 299, 451.935 299 L 440 299 440 344.500 M 447.941 558.703 C 442.750 563.071, 442 566.167, 442 583.218 L 442 598.500 403.750 598.500 C 360.865 598.500, 361.389 598.419, 356.847 605.726 C 354.540 609.435, 354.500 609.950, 354.500 635.675 C 354.500 660.551, 354.602 661.987, 356.562 664.613 C 357.696 666.133, 359.866 668.304, 361.384 669.438 C 364.045 671.426, 365.546 671.510, 403.072 671.784 L 442 672.067 442.004 687.784 C 442.007 701.702, 442.235 703.873, 443.995 706.759 C 446.412 710.725, 451.515 713.991, 455.300 713.996 C 459.887 714.002, 463.226 711.652, 481.281 695.710 C 490.755 687.344, 507.345 672.739, 518.148 663.252 C 544.674 639.958, 545.445 638.985, 543.401 631.368 C 543.086 630.195, 534.690 621.870, 524.744 612.868 C 514.797 603.866, 496.579 587.388, 484.258 576.250 L 461.857 556 456.505 556 C 452.148 556, 450.556 556.503, 447.941 558.703" stroke="none" fill="#fb3243" fill-rule="evenodd"/><path d="M 231.500 117.503 C 213.230 120.956, 198.729 128.846, 184.178 143.251 C 172.435 154.877, 165.476 166.615, 160.765 182.744 L 158.500 190.500 158.238 478.990 C 158.006 734.675, 158.151 768.492, 159.512 776.379 C 165.063 808.547, 189.748 835.143, 222.500 844.243 L 230.500 846.465 365 846.788 C 438.975 846.965, 501.431 846.830, 503.792 846.487 C 508.592 845.791, 514.138 841.567, 516.662 836.686 C 520.297 829.658, 516.165 818.760, 508.434 814.985 C 504.442 813.036, 502.004 813, 373.934 812.992 C 289.378 812.988, 241.214 812.623, 237 811.955 C 219.149 809.127, 202.531 795.213, 195.754 777.419 L 193.500 771.500 193.216 487 C 193.013 283.967, 193.245 200.639, 194.028 196 C 197.036 178.179, 210.500 162.214, 229.327 154.146 L 235.500 151.500 430 151.500 L 624.500 151.500 629 153.864 C 631.999 155.440, 653.350 175.959, 692.995 215.364 C 725.717 247.889, 755.549 277.530, 759.289 281.232 C 770.355 292.190, 769.426 284.447, 770 370.574 L 770.500 445.649 773 449.339 C 777.446 455.903, 786.187 458.620, 793.298 455.649 C 797.012 454.097, 802.709 448.016, 803.526 444.732 C 803.831 443.504, 803.950 407.850, 803.791 365.500 C 803.500 288.544, 803.499 288.497, 801.262 282.568 C 796.242 269.264, 795.239 268.157, 724.675 198 C 687.335 160.875, 654.470 128.991, 651.642 127.147 C 644.039 122.190, 637.156 119.320, 628.660 117.565 C 621.932 116.175, 599.693 116.010, 429.792 116.090 C 275.641 116.163, 237.141 116.437, 231.500 117.503 M 609 491.119 C 594.672 493.426, 580.333 504.478, 573.358 518.590 L 569.500 526.396 569.232 658.448 C 568.970 787.668, 569.007 790.640, 570.948 797.042 C 575.641 812.522, 587.286 824.319, 603.903 830.427 C 609.408 832.450, 611.331 832.489, 721 832.783 C 799.626 832.993, 834.461 832.753, 839.153 831.967 C 857.469 828.898, 873.862 813.946, 879.586 795.086 C 880.745 791.270, 880.980 768.738, 880.989 660.855 C 881 533.820, 880.960 531.080, 878.991 524.705 C 875.204 512.444, 865.782 501.493, 853.769 495.389 C 842.988 489.911, 845.663 490.021, 725.500 490.132 C 664.450 490.188, 612.025 490.632, 609 491.119 M 611.996 526.233 C 608.701 527.894, 606.899 529.692, 605.250 532.962 L 603 537.424 603 661 L 603 784.576 605.250 789.038 C 606.899 792.308, 608.701 794.106, 611.996 795.767 L 616.493 798.034 726.496 797.767 C 834.472 797.505, 836.562 797.463, 839.845 795.500 C 841.685 794.400, 844.048 791.830, 845.095 789.790 C 846.938 786.200, 847 782.026, 847 660.688 L 847 535.296 844.750 531.990 C 843.513 530.172, 841.230 527.743, 839.677 526.592 C 836.858 524.503, 836.696 524.500, 726.673 524.233 L 616.493 523.966 611.996 526.233 M 668.500 578.341 C 658.371 581.690, 650.362 588.359, 645.933 597.132 C 636.300 616.216, 643.739 638.478, 663.160 648.680 C 668.023 651.235, 669.438 651.487, 679 651.493 C 688.289 651.499, 690.155 651.193, 695.175 648.840 C 703.126 645.113, 709.397 638.970, 713.250 631.138 C 716.294 624.949, 716.499 623.866, 716.492 614.016 C 716.484 604.175, 716.281 603.113, 713.335 597.463 C 709.495 590.101, 702.749 583.693, 695.175 580.214 C 688.392 577.098, 675.087 576.164, 668.500 578.341 M 758 638.652 C 751.807 640.692, 752.386 639.947, 719.135 688.723 C 708.554 704.246, 699.573 717.146, 699.179 717.389 C 698.785 717.633, 694.081 710.946, 688.726 702.528 C 678.165 685.926, 676.025 684, 668.134 684 C 663.351 684, 659.186 687.190, 653.339 695.331 C 651.297 698.174, 644.326 707.743, 637.848 716.595 C 631.369 725.447, 625.585 733.963, 624.993 735.519 C 622.851 741.151, 626.620 749.108, 632.617 751.613 C 637.591 753.692, 815.803 753.674, 819.800 751.595 C 825.430 748.666, 827.501 745.317, 827.487 739.169 C 827.475 734.310, 826.935 732.679, 823.706 727.750 C 821.634 724.587, 809.566 704.787, 796.889 683.750 C 784.212 662.712, 772.864 644.430, 771.670 643.121 C 768.071 639.176, 762.218 637.262, 758 638.652" stroke="none" fill="#798a92" fill-rule="evenodd"/></svg>