<svg xmlns="http://www.w3.org/2000/svg" width="1024" height="1024" viewBox="0 0 1024 1024" version="1.1"><path d="M 175 115.516 C 160.242 118.532, 148.631 124.635, 137.363 135.301 C 127.701 144.447, 121.369 153.986, 117.316 165.500 L 114.500 173.500 114.500 456 C 114.500 728.949, 114.563 738.686, 116.363 744 C 122.798 762.996, 135.958 776.002, 156 783.174 L 162.500 785.500 262.500 785.500 C 372.452 785.500, 367.104 785.804, 371.112 779.318 C 374.423 773.961, 373.404 766.937, 368.621 762.154 L 364.966 758.500 268.233 758.322 C 215.030 758.223, 169.586 757.894, 167.247 757.590 C 158.569 756.462, 150.139 749.989, 145.235 740.687 L 142.500 735.500 142.196 459.500 C 141.966 250.968, 142.179 182.156, 143.066 178 C 144.890 169.458, 149.143 162.117, 156.144 155.424 C 164.359 147.571, 172.979 143.329, 183.500 141.960 C 188.846 141.264, 247.064 141.015, 359 141.209 L 526.500 141.500 532.500 144.371 C 537.752 146.883, 545.807 154.552, 597.111 205.880 C 643.052 251.843, 656.347 265.706, 658.611 270.010 L 661.500 275.500 662 371.677 C 662.498 467.378, 662.510 467.869, 664.596 470.677 C 667.400 474.452, 670.612 475.968, 675.846 475.985 C 681.057 476.003, 685.058 473.837, 687.614 469.614 C 689.427 466.621, 689.500 462.810, 689.500 371.500 C 689.500 266.320, 689.826 271.866, 682.771 257.046 C 678.758 248.618, 678.588 248.435, 625.623 195.483 C 596.405 166.272, 568.449 138.577, 563.497 133.936 C 553.164 124.253, 543.940 118.926, 532.391 115.972 C 524.856 114.045, 520.757 114.002, 353.090 114.094 C 214.653 114.170, 180.244 114.445, 175 115.516 M 669.799 198.906 L 683.959 212.901 717.730 213.200 L 751.502 213.500 755.786 216.031 C 758.142 217.424, 786.451 244.646, 818.694 276.525 C 866.274 323.568, 877.757 335.431, 879.649 339.494 L 881.980 344.500 881.989 572 L 881.998 799.500 879.056 805.719 C 873.694 817.054, 863.612 824.661, 850.817 827.026 C 847.223 827.690, 784.107 827.945, 666.923 827.769 C 498.667 827.515, 488.244 827.399, 484 825.723 C 477.108 823, 469.343 817.244, 465.653 812.122 C 459.279 803.275, 458.676 800.566, 458.060 778 C 457.681 764.115, 457.087 756.777, 456.220 755.260 C 454.094 751.540, 449.373 749.721, 443.172 750.236 C 438.432 750.629, 437.221 751.182, 434.421 754.238 C 430.219 758.823, 429.505 764.274, 430.325 785.500 C 431.043 804.080, 432.423 810.303, 438.256 821.251 C 446.050 835.878, 458.606 846.341, 474.694 851.614 L 483.500 854.500 670 854.500 L 856.500 854.500 865.431 851.573 C 882.286 846.049, 895.934 834.192, 903.530 818.472 C 910.522 804.002, 910.054 822.766, 909.763 568.790 L 909.500 339.500 906.783 332.720 C 905.289 328.991, 902.501 323.591, 900.588 320.720 C 898.675 317.849, 870.264 288.950, 837.454 256.500 C 776.485 196.200, 772.756 192.888, 760.086 187.761 C 754.585 185.535, 753.744 185.495, 705.070 185.205 L 655.639 184.911 669.799 198.906" stroke="none" fill="#7a8d98" fill-rule="evenodd"/><path d="M 204 350.250 L 204 424.500 221.750 424.360 C 231.512 424.283, 239.725 424.171, 240 424.111 C 240.275 424.051, 240.365 413.259, 240.200 400.128 L 239.901 376.254 257.200 375.718 C 281.140 374.976, 290.501 371.986, 301.886 361.445 C 315.549 348.795, 320.654 327.738, 314.501 309.408 C 310.052 296.156, 304.019 288.870, 292.497 282.835 C 280.892 276.757, 274.750 276, 237.042 276 L 204 276 204 350.250 M 339.244 350.250 L 339.500 424.500 376.500 424.420 C 410.849 424.345, 414.047 424.189, 421.136 422.240 C 442.639 416.327, 458.013 404.009, 466.989 385.500 C 473.259 372.571, 474.455 366.742, 474.479 349 C 474.497 335.510, 474.196 332.527, 472.158 326 C 463.945 299.697, 445.854 283.775, 417.500 277.893 C 409.728 276.281, 403.759 276.024, 373.744 276.013 L 338.987 276 339.244 350.250 M 497 349.905 L 497 423.829 504.250 424.494 C 508.238 424.860, 516.450 425.010, 522.500 424.829 L 533.500 424.500 533.765 394.770 L 534.030 365.040 558.765 365.075 L 583.500 365.111 583.777 351.055 L 584.055 337 559.777 336.882 C 546.425 336.816, 535.163 336.816, 534.750 336.882 C 534.337 336.947, 534 329.800, 534 321 L 534 305 563.750 304.996 L 593.500 304.993 593.500 290.746 L 593.500 276.500 545.250 276.240 L 497 275.981 497 349.905 M 240 326 L 240 347 251.318 347 C 265.003 347, 271.257 345.393, 275.794 340.713 C 283.077 333.198, 282.807 318.629, 275.237 310.726 C 271.331 306.648, 264.448 305, 251.318 305 L 240 305 240 326 M 376 350.490 L 376 396.280 389.750 395.737 C 410.825 394.906, 420.555 391.015, 428.475 380.252 C 435.163 371.163, 436.442 366.315, 436.473 349.948 L 436.500 335.396 432.728 327.763 C 427.239 316.657, 418.795 309.894, 406.791 306.991 C 404.431 306.420, 396.538 305.671, 389.250 305.326 L 376 304.700 376 350.490 M 413.659 507.054 C 409.467 510.351, 408.936 514.734, 409.032 545.213 L 409.121 573.500 378.503 573.765 C 344.559 574.058, 344.091 574.145, 341.364 580.672 C 339.410 585.348, 339.435 621.711, 341.394 626.401 C 344.159 633.017, 344.061 633, 378.473 633 L 409.500 633 409.500 663.927 C 409.500 704.828, 408.065 702.864, 438 702.920 C 457.839 702.957, 462.550 702.206, 465.750 698.497 C 467.980 695.911, 468 695.614, 468 664.444 L 468 633 499.777 633 C 534.561 633, 534.383 633.028, 537.506 626.989 C 539.594 622.950, 539.675 585.551, 537.606 580.599 C 534.835 573.968, 535.019 574, 499.777 574 L 468 574 468 542.604 L 468 511.207 464.465 508.104 L 460.930 505 438.600 505 C 417.590 505, 416.115 505.121, 413.659 507.054 M 638.414 666.917 C 638.186 667.146, 638 693.847, 638 726.252 L 638 785.171 669.250 784.735 C 703.790 784.253, 705.545 783.994, 718.858 777.418 C 737.660 768.131, 747.943 749.576, 747.983 724.863 C 748.029 696.480, 734.010 677.026, 707.955 669.312 C 703.666 668.042, 695.697 667.569, 670.664 667.099 C 653.155 666.769, 638.642 666.688, 638.414 666.917 M 530 725.935 L 530 785 545 785 L 560 785 560.001 765.750 L 560.003 746.500 573.751 746.443 C 590.935 746.372, 599.229 744.198, 607.247 737.662 C 613.442 732.612, 616.146 728.847, 619.097 721.157 C 622.162 713.169, 622.149 699.670, 619.068 692.039 C 614.870 681.643, 607.952 674.705, 597 669.909 C 591.642 667.562, 590.704 667.492, 560.750 667.185 L 530 666.870 530 725.935 M 766 726.027 L 766 785.053 780.556 784.777 L 795.111 784.500 795.306 761.500 L 795.500 738.500 815.806 738.448 L 836.111 738.396 836.210 727.448 L 836.309 716.500 815.655 716.230 L 795 715.959 795 702.980 L 795 690 819.880 690 L 844.760 690 844.862 678.500 L 844.963 667 805.482 667 L 766 667 766 726.027 M 560 707.032 L 560 724.291 569.777 723.752 C 580.533 723.159, 585.217 721.648, 589 717.548 C 591.194 715.171, 591.500 713.939, 591.500 707.493 C 591.500 694.808, 586.535 690.755, 570.257 690.153 L 560 689.773 560 707.032 M 668 726.006 L 668 762.305 679.750 761.679 C 693.602 760.941, 697.220 760.040, 703.671 755.723 C 709.497 751.824, 714.439 744.015, 716.080 736.117 C 717.892 727.399, 716.798 714.562, 713.682 707.977 C 707.860 695.670, 699.217 691.155, 679.750 690.251 L 668 689.706 668 726.006" stroke="none" fill="#fb3542" fill-rule="evenodd"/></svg>