<svg xmlns="http://www.w3.org/2000/svg" width="768" height="512" viewBox="0 0 768 512"><rect x="487.0" y="166.0" width="34" height="68" fill="#4B5563" transform="rotate(0.0 504.0 200.0)" rx="8" ry="8"/><rect x="451.8528137423857" y="250.8528137423857" width="34" height="68" fill="#4B5563" transform="rotate(45.0 468.8528137423857 284.8528137423857)" rx="8" ry="8"/><rect x="367.0" y="286.0" width="34" height="68" fill="#4B5563" transform="rotate(90.0 384.0 320.0)" rx="8" ry="8"/><rect x="282.1471862576143" y="250.8528137423857" width="34" height="68" fill="#4B5563" transform="rotate(135.0 299.1471862576143 284.8528137423857)" rx="8" ry="8"/><rect x="247.0" y="166.00000000000003" width="34" height="68" fill="#4B5563" transform="rotate(180.0 264.0 200.00000000000003)" rx="8" ry="8"/><rect x="282.1471862576143" y="81.14718625761431" width="34" height="68" fill="#4B5563" transform="rotate(225.0 299.1471862576143 115.14718625761431)" rx="8" ry="8"/><rect x="367.0" y="46.0" width="34" height="68" fill="#4B5563" transform="rotate(270.0 384.0 80.0)" rx="8" ry="8"/><rect x="451.8528137423857" y="81.14718625761428" width="34" height="68" fill="#4B5563" transform="rotate(315.0 468.8528137423857 115.14718625761428)" rx="8" ry="8"/><circle cx="384" cy="200" r="92" fill="none" stroke="#4B5563" stroke-width="14"/><circle cx="384" cy="200" r="40" fill="#4B5563"/></svg>