<svg xmlns="http://www.w3.org/2000/svg" width="1024" height="1024" viewBox="0 0 1024 1024" version="1.1"><path d="M 243.532 286.801 C 243.240 287.094, 243 310.208, 243 338.167 L 243 389 255.500 389 L 268 389 268 372.500 L 268 356 281.250 355.988 C 294.154 355.977, 301.644 354.822, 307.046 352.012 C 313.071 348.878, 318.011 343.722, 321.200 337.241 C 324.239 331.066, 324.499 329.782, 324.482 321.018 C 324.466 312.876, 324.089 310.705, 321.869 306 C 316.389 294.383, 307.163 288.635, 291.309 286.962 C 281.482 285.925, 244.533 285.800, 243.532 286.801 M 341 286.305 C 340.725 286.595, 340.621 309.820, 340.768 337.916 L 341.036 389 365.336 389 C 395.541 389, 400.770 387.795, 412.454 378.139 C 419.110 372.640, 423.491 365.969, 426.431 356.863 C 434.849 330.784, 426.818 304.352, 406.937 292.704 C 398.539 287.783, 392.510 286.838, 366 286.287 C 352.525 286.006, 341.275 286.014, 341 286.305 M 443.930 286.403 C 443.694 286.639, 443.621 309.820, 443.768 337.916 L 444.036 389 455.997 389 L 467.958 389 468.229 369.430 L 468.500 349.859 485.500 349.680 L 502.500 349.500 502.785 339.250 L 503.070 329 485.535 329 L 468 329 467.999 318.250 L 467.999 307.500 488.749 307.500 L 509.500 307.500 509.500 297 L 509.500 286.500 476.930 286.237 C 459.017 286.092, 444.167 286.166, 443.930 286.403 M 554 337.500 L 554 389 566 389 L 578 389 578 372.500 L 578 356 591.479 356 C 602.604 356, 606.110 355.622, 611.555 353.834 C 619.883 351.100, 626.845 345.053, 630.700 337.203 C 633.201 332.109, 633.500 330.430, 633.500 321.479 C 633.500 312.215, 633.257 310.964, 630.283 304.923 C 624.954 294.098, 616.274 288.634, 601.759 286.965 C 597.217 286.443, 584.612 286.012, 573.750 286.008 L 554 286 554 337.500 M 647 337.500 L 647 389 670.790 389 C 696.610 389, 702.136 388.228, 711.054 383.374 C 717.515 379.857, 724.951 372.487, 728.272 366.307 C 734.553 354.619, 736.783 335.188, 733.460 321.093 C 730.230 307.388, 721.690 296.549, 709.723 290.967 C 701.675 287.212, 691.215 286.019, 666.250 286.008 L 647 286 647 337.500 M 748.952 286.381 C 748.703 286.629, 748.621 309.820, 748.768 337.916 L 749.036 389 761.018 389 L 773 389 772.999 369.250 L 772.997 349.500 789.999 349.796 L 807 350.091 807 339.546 L 807 329 790 329 L 773 329 773 318.500 L 773 308 793 308 L 813 308 813 297.078 L 813 286.155 781.202 286.042 C 763.713 285.980, 749.200 286.133, 748.952 286.381 M 268 321.374 L 268 336 277.134 336 C 293.538 336, 299.003 332.544, 298.996 322.173 C 298.992 315.895, 296.710 310.996, 292.804 308.880 C 291.531 308.191, 285.467 307.435, 279.250 307.190 L 268 306.748 268 321.374 M 364 337.358 L 364 368 373.057 368 C 384.978 368, 390.003 366.630, 395.352 361.921 C 403.894 354.402, 407.176 339.487, 403.172 326.377 C 398.997 312.707, 392.098 308.060, 374.750 307.231 L 364 306.717 364 337.358 M 578 321.389 L 578 336 587.250 335.978 C 597.184 335.954, 602.737 334.265, 606.396 330.151 C 608.973 327.255, 609.628 319.439, 607.685 314.788 C 605.363 309.232, 601.464 307.666, 588.750 307.185 L 578 306.779 578 321.389 M 671 337.447 L 671 368.182 681.283 367.841 C 694.157 367.414, 699.785 364.960, 704.736 357.615 C 708.771 351.630, 710.198 346.465, 710.292 337.500 C 710.434 323.987, 704.819 313.162, 695.773 309.510 C 693.183 308.465, 687.464 307.574, 681.250 307.249 L 671 306.713 671 337.447 M 426.559 427.082 C 420.791 432.147, 419.695 439.403, 422.873 451.500 C 425.020 459.673, 438.609 494.079, 456.416 536.429 C 463.337 552.890, 469 566.885, 469 567.530 C 469 568.815, 460.222 580.744, 457.795 582.756 C 456.560 583.780, 455.381 583.614, 451.396 581.851 C 443.399 578.314, 437.022 577.024, 427.460 577.012 C 406.863 576.985, 391.316 585.687, 380.754 603.155 C 375.504 611.837, 373.817 617.800, 373.259 629.652 C 372.852 638.283, 373.129 640.979, 375.107 647.643 C 383.810 676.957, 416.089 693.878, 444.499 684.018 C 459.578 678.785, 473.065 665.474, 478.818 650.146 C 480.884 644.640, 481.392 641.195, 481.777 630.064 L 482.243 616.627 486.871 610.832 C 492.275 604.065, 491.764 603.807, 498.724 616.828 L 502.833 624.515 501.416 629.975 C 499.547 637.183, 499.616 651.417, 501.562 659.975 C 503.345 667.812, 508.411 676.767, 514.879 683.514 C 523.727 692.743, 533.567 697.579, 546.876 699.240 C 569.286 702.036, 591.406 690.124, 601.177 670 C 605.537 661.020, 607 654.527, 607 644.161 C 607 629.452, 602.778 619.042, 592.311 607.947 C 580.407 595.328, 565.983 590.200, 545.875 591.438 L 535.250 592.092 531.989 585.796 C 530.195 582.333, 522.556 568.250, 515.013 554.500 C 496.889 521.459, 483.618 496.743, 464.917 461.200 C 456.437 445.085, 448.160 430.523, 446.523 428.839 C 442.870 425.083, 440.172 424, 434.470 424 C 430.981 424, 429.343 424.638, 426.559 427.082 M 586.500 440.537 C 584.850 441.415, 582.444 443.115, 581.152 444.316 C 576.693 448.464, 510.171 526.368, 509.466 528.268 C 508.956 529.644, 529.302 565.618, 530.408 565.294 C 530.795 565.181, 539.298 554.819, 549.305 542.267 C 593.132 487.296, 596.143 483.035, 600.659 469.596 C 605.344 455.653, 604.324 445.237, 597.873 441.164 C 594.711 439.168, 589.604 438.886, 586.500 440.537 M 489.420 566.885 C 480.991 572.026, 483.086 585.273, 492.750 587.942 C 500.200 589.998, 507 584.777, 507 577 C 507 567.633, 497.324 562.066, 489.420 566.885 M 421.500 603.919 C 413.028 606.046, 405.168 612.422, 401.674 620 C 399.064 625.660, 398.840 637.672, 401.242 643.190 C 405.687 653.404, 416.379 660.209, 427.842 660.121 C 448.891 659.960, 462.692 638.199, 453.571 619.556 C 450.700 613.687, 444.732 608.019, 438.923 605.642 C 434.549 603.852, 425.377 602.945, 421.500 603.919 M 544.821 619.336 C 529.081 623.773, 520.674 642.130, 527.570 657 C 534.060 670.992, 547.882 677.189, 562.081 672.473 C 569.829 669.899, 577.306 662.194, 579.552 654.468 C 582.471 644.429, 579.455 632.464, 572.343 625.860 C 565.414 619.426, 554.052 616.733, 544.821 619.336" stroke="none" fill="#fb3f4e" fill-rule="evenodd"/><path d="M 223.920 134.010 C 208.166 137.886, 195.802 145.285, 183.275 158.334 C 169.947 172.216, 162.680 186.976, 160.040 205.524 C 159.216 211.318, 158.987 268.201, 159.203 413.500 L 159.500 613.500 161.750 621.410 C 164.773 632.036, 167.769 638.257, 173.534 645.876 C 180.058 654.497, 189.828 662.454, 199.595 667.100 C 214.007 673.956, 214.154 673.969, 275 673.981 C 327.304 673.992, 329.629 673.914, 332.701 672.040 C 337.415 669.167, 339.433 664.658, 339.433 657 C 339.433 649.645, 337.506 645.034, 333.275 642.259 C 330.823 640.652, 325.936 640.457, 276.546 640 L 222.500 639.500 216.880 636.865 C 210.074 633.674, 203.750 628.135, 200.416 622.447 C 194.830 612.916, 195.036 620.983, 195.025 410.500 C 195.019 284.325, 195.369 214.228, 196.029 210 C 197.474 200.731, 203.145 189.696, 209.925 182.963 C 217.087 175.849, 223.118 172.400, 232.656 169.960 C 240.057 168.067, 244.403 168, 359.437 168 C 490.455 168, 481.166 168.446, 484.506 161.989 C 486.249 158.618, 486.514 146.392, 484.965 140.814 C 484.402 138.787, 482.570 135.975, 480.894 134.564 L 477.847 132 354.673 132.072 C 237.986 132.141, 231.101 132.243, 223.920 134.010 M 507 134 C 505.145 135.855, 505 137.333, 505 154.389 C 505 170.771, 505.201 173.027, 506.844 175.056 C 509.278 178.062, 514.341 178.103, 517.306 175.141 C 519.374 173.076, 519.518 171.926, 519.811 155.187 C 520.106 138.320, 520.014 137.287, 517.988 134.712 C 515.330 131.333, 510.011 130.989, 507 134 M 541.525 135.275 C 538.989 137.811, 538.084 139.752, 537.518 143.868 C 536.355 152.326, 537.725 161.520, 540.671 165.020 L 543.178 168 636.407 168 C 719.143 168, 730.246 168.181, 735.051 169.608 C 740.237 171.148, 742.252 173.022, 782.982 214.192 C 806.367 237.828, 826.291 258.592, 827.258 260.334 C 828.920 263.326, 829.002 273.109, 828.758 438.500 L 828.500 613.500 825.830 619.196 C 822.424 626.463, 815.463 633.424, 808.196 636.830 L 802.500 639.500 723.955 640 C 636.647 640.556, 642.154 640.089, 638.300 647.259 C 635.653 652.184, 635.964 662.588, 638.900 667.339 C 643.249 674.374, 638.439 674.002, 724.700 673.983 C 811.568 673.963, 810.233 674.055, 824.500 667.110 C 843.090 658.059, 856.944 641.323, 862.669 621 C 864.412 614.813, 864.500 606.084, 864.500 439.500 L 864.500 264.500 862.194 256.535 C 857.236 239.410, 857.230 239.402, 802.008 183.654 C 766.651 147.961, 758.796 140.985, 749.458 136.982 C 737.901 132.028, 737.268 132, 637.835 132 L 544.800 132 541.525 135.275 M 506.557 204.223 C 505.252 206.085, 505 210.351, 505 230.548 C 505 254.450, 505.019 254.670, 507.314 256.826 C 510.297 259.628, 515.091 259.661, 517.595 256.897 C 519.319 254.995, 519.530 252.785, 519.811 233.647 C 520.154 210.358, 519.812 206.812, 516.944 203.944 C 514.196 201.196, 508.571 201.347, 506.557 204.223 M 507.606 391.299 C 504.822 393.335, 504.465 397.467, 505 421.482 C 505.539 445.691, 505.652 446.171, 511.109 447.507 C 513.055 447.984, 514.454 447.514, 516.609 445.660 L 519.500 443.173 519.500 418.692 C 519.500 396.020, 519.359 394.054, 517.595 392.105 C 515.420 389.701, 510.350 389.292, 507.606 391.299 M 506.655 473.829 C 505.306 475.320, 505 477.907, 505 487.829 C 505 498.667, 505.219 500.219, 507 502 C 509.547 504.547, 514.426 504.574, 516.944 502.056 C 519.544 499.456, 520.334 494.592, 519.803 484.470 C 519.472 478.156, 518.904 475.551, 517.526 474.028 C 515.140 471.392, 508.963 471.279, 506.655 473.829 M 507.174 718.314 C 505.069 720.555, 505 721.377, 505 744.140 C 505 767.423, 505.022 767.672, 507.314 769.826 C 510.297 772.628, 515.091 772.661, 517.595 769.897 C 519.322 767.991, 519.529 765.781, 519.807 746.192 C 519.975 734.310, 519.852 723.545, 519.531 722.269 C 518.019 716.244, 511.177 714.054, 507.174 718.314" stroke="none" fill="#898d8f" fill-rule="evenodd"/></svg>