<svg xmlns="http://www.w3.org/2000/svg" width="1024" height="1024" viewBox="0 0 1024 1024" version="1.1"><path d="M 261.250 286.635 C 260.266 287.054, 260 303.400, 260 363.583 L 260 440 279.500 440 L 299 440 299 416 L 299 392 313.250 391.992 C 332.438 391.982, 342.177 390.731, 351.635 387.063 C 366.179 381.421, 376.642 370.316, 381.258 355.620 C 384.251 346.092, 384.425 328.248, 381.606 320 C 375.915 303.347, 362.928 292.450, 343.909 288.372 C 338.097 287.125, 328.525 286.709, 299.500 286.443 C 279.150 286.256, 261.938 286.343, 261.250 286.635 M 403.744 286.589 C 403.335 286.998, 403 321.683, 403 363.667 L 403 440 439.750 439.985 C 468.724 439.974, 477.833 439.656, 482.802 438.485 C 510.783 431.888, 528.864 414.852, 536.256 388.118 C 539.188 377.514, 539.414 349.972, 536.654 339.500 C 529.408 311.995, 510.824 294.110, 483.500 288.345 C 475.874 286.736, 405.154 285.179, 403.744 286.589 M 559.250 286.658 C 558.265 287.059, 558 303.388, 558 363.583 L 558 440 577 440 L 596 440 596 410.500 L 596 381 625 381 L 654 381 654 367.082 C 654 359.427, 653.730 352.459, 653.399 351.599 C 652.875 350.231, 649.370 350.036, 625.649 350.050 C 610.717 350.059, 597.938 350.051, 597.250 350.033 C 596.305 350.008, 596 346.216, 596 334.500 L 596 319 630.025 319 L 664.050 319 663.775 302.750 L 663.500 286.500 612 286.324 C 583.675 286.228, 559.938 286.378, 559.250 286.658 M 299 339.474 L 299 362.256 312.750 361.803 C 328.492 361.284, 333.365 359.766, 338.664 353.730 C 345.582 345.850, 345.428 331.761, 338.345 324.679 C 333.271 319.604, 327.660 318.019, 312.250 317.305 L 299 316.692 299 339.474 M 441 363.412 L 441 408 452.951 408 C 459.524 408, 467.286 407.494, 470.201 406.876 C 489.099 402.866, 500 387.337, 500 364.426 C 500 353.569, 498.630 346.810, 494.874 339.131 C 491.066 331.348, 485.293 325.534, 478 322.139 C 472.985 319.803, 471.112 319.545, 456.750 319.201 L 441 318.824 441 363.412 M 474.304 527.956 C 467.878 531.874, 467.552 533.169, 467 556.952 L 466.500 578.500 423.500 579 C 399.850 579.275, 379.701 579.890, 378.723 580.367 C 377.746 580.844, 375.834 583.134, 374.473 585.455 L 372 589.676 372.002 623.588 C 372.003 661.426, 372.128 662.208, 378.898 666.730 C 382.295 669, 382.301 669, 424.148 669 L 466 669 466 689.099 C 466 712.058, 466.456 713.904, 473.212 718.284 C 477.818 721.271, 484.742 721.911, 488.674 719.715 C 489.869 719.047, 497.977 711.750, 506.692 703.500 C 515.407 695.250, 536.110 675.751, 552.699 660.169 C 572.678 641.402, 583.222 630.801, 583.931 628.769 C 585.438 624.444, 585.260 620.317, 583.407 616.651 C 582.531 614.918, 571.006 603.375, 557.796 591 C 544.586 578.625, 524.367 559.618, 512.864 548.763 C 501.362 537.907, 490.634 528.345, 489.025 527.513 C 484.948 525.404, 478.154 525.609, 474.304 527.956" stroke="none" fill="#fb3a4a" fill-rule="evenodd"/><path d="M 225.509 133.661 C 200.991 138.914, 178.512 157.570, 167.077 182.156 C 159.309 198.859, 159.910 171.216, 160.240 497 C 160.524 775.726, 160.616 788.763, 162.359 794.500 C 171.819 825.634, 195.522 848.132, 225.573 854.498 C 231.437 855.740, 250.737 855.968, 351.300 855.983 C 482.358 856.002, 472.732 856.486, 478.809 849.564 C 486.358 840.967, 484.123 827.809, 474.163 822.212 L 470.228 820 354.250 820 C 280.765 820, 236.299 819.632, 232.886 818.995 C 215.295 815.712, 199.968 799.661, 196.976 781.387 C 195.626 773.143, 195.672 219.709, 197.024 211 C 199.300 196.330, 210.555 180.411, 223.240 173.919 C 235.411 167.690, 223.422 168.030, 431 168.020 C 565.555 168.014, 621.647 168.329, 624.454 169.109 C 627.799 170.037, 637.882 179.644, 689.791 231.353 C 724.824 266.251, 752.317 294.432, 753.837 297 L 756.500 301.500 757 367 C 757.359 413.993, 757.827 433.065, 758.658 434.500 C 760.530 437.732, 764.248 440.788, 768.440 442.539 C 776.478 445.898, 787.032 441.696, 790.965 433.573 C 792.946 429.479, 792.999 427.722, 792.965 366.934 C 792.927 298.192, 792.652 294.264, 787.039 282.270 C 785.326 278.609, 782.360 273.704, 780.447 271.370 C 774.616 264.254, 656.447 147.003, 650.790 142.720 C 644.181 137.716, 637.006 134.472, 629.464 133.078 C 625.413 132.329, 563.939 132.025, 428.066 132.082 C 258.348 132.152, 231.576 132.361, 225.509 133.661 M 650.500 481.402 C 640.142 484.687, 631.867 491.723, 627.661 500.824 L 625.500 505.500 625.500 620 L 625.500 734.500 627.874 739.280 C 633.829 751.269, 645.046 759.281, 658.284 761.001 C 668.821 762.370, 844.089 762.284, 851.566 760.907 C 864.628 758.500, 874.846 751.121, 880.213 740.218 L 883.500 733.542 883.500 619.521 L 883.500 505.500 880.854 500.500 C 876.128 491.571, 868.290 484.946, 858.572 481.664 C 854.100 480.154, 844.415 480.006, 754.072 480.067 C 676.567 480.119, 653.614 480.415, 650.500 481.402 M 659.455 514.455 L 657 516.909 657 620.344 C 657 720.334, 657.063 723.856, 658.893 726.116 L 660.785 728.453 754.584 728.249 C 838.017 728.068, 848.555 727.874, 849.941 726.487 C 851.333 725.096, 851.500 713.725, 851.500 620.376 L 851.500 515.823 849.139 513.912 C 846.853 512.060, 843.864 512, 754.344 512 L 661.909 512 659.455 514.455 M 696.357 555.312 C 689.770 561.348, 690.761 572.445, 698.299 577.040 C 701.367 578.912, 703.694 578.993, 754.500 578.993 C 815.014 578.993, 812.159 579.387, 815.533 570.552 C 817.810 564.589, 816.466 559.494, 811.453 555.093 L 807.930 552 753.951 552 L 699.971 552 696.357 555.312 M 701.643 608.028 C 693.301 610.528, 689.354 621.149, 693.960 628.701 C 697.891 635.150, 696.448 635, 754.546 635 C 813.881 635, 811.205 635.339, 815.079 627.337 C 817.575 622.181, 816.930 617.258, 813.172 612.793 C 808.258 606.953, 808.661 606.992, 754.282 607.086 C 726.902 607.133, 703.214 607.557, 701.643 608.028 M 702 663.639 C 695.464 665.850, 692 670.450, 692 676.918 C 692 682.257, 694.238 686.565, 698.299 689.040 C 701.368 690.912, 703.699 690.993, 754.715 690.996 L 807.930 691 811.453 687.907 C 818.564 681.663, 818.493 671.766, 811.296 666.276 L 807.657 663.500 755.579 663.316 C 726.935 663.214, 702.825 663.360, 702 663.639" stroke="none" fill="#878989" fill-rule="evenodd"/></svg>