<svg xmlns="http://www.w3.org/2000/svg" width="1024" height="1024" viewBox="0 0 1024 1024" version="1.1"><path d="M 231.660 132.048 C 224.981 133.169, 213.334 136.790, 208.512 139.244 C 189.540 148.902, 172.565 167.210, 165.163 186 C 158.480 202.964, 158.875 182.095, 159.252 498.500 C 159.627 813.740, 159.097 788.231, 165.605 804.487 C 172.228 821.029, 187.733 838.044, 203.700 846.291 C 221.474 855.471, 220.646 855.364, 277 855.756 L 326.500 856.100 331 853.726 C 342.789 847.505, 344.151 832.085, 333.659 823.605 L 329.818 820.500 281.659 819.931 C 227.898 819.295, 228.527 819.372, 217.259 812.089 C 210.726 807.867, 204.554 800.842, 201.091 793.688 C 195.704 782.560, 195.955 798.092, 196.238 492.756 L 196.500 210.500 199.155 203.236 C 206.017 184.458, 220.133 171.984, 237.847 169.044 C 242.579 168.258, 299.214 168.020, 434 168.220 C 600.542 168.466, 623.754 168.682, 625.600 170 C 626.755 170.825, 656.097 199.580, 690.804 233.899 C 731.013 273.659, 754.288 297.387, 754.954 299.298 C 755.650 301.293, 756.007 330.812, 756.022 387.399 C 756.043 468.099, 756.140 472.707, 757.896 476.500 C 764.557 490.887, 783.802 491.783, 790.750 478.030 L 793 473.576 792.965 389.038 C 792.926 295.116, 792.900 294.676, 786.521 281.158 C 782.992 273.679, 781.333 271.928, 715.704 206.376 C 654.562 145.307, 647.914 138.971, 642 136.131 C 638.425 134.415, 633.076 132.558, 630.114 132.005 C 623.565 130.783, 238.950 130.824, 231.660 132.048" stroke="none" fill="#859192" fill-rule="evenodd"/><path d="M 260.750 286.570 C 260.337 286.990, 260 321.683, 260 363.667 L 260 440 279.500 440 L 299 440 299 416.154 L 299 392.308 319.250 391.701 C 341.365 391.037, 347.331 389.971, 357.458 384.878 C 375.664 375.721, 386.003 353.961, 383.260 330.571 C 380.504 307.062, 368.323 293.652, 345 288.448 C 338.974 287.103, 330.033 286.679, 299.500 286.290 C 278.600 286.024, 261.163 286.150, 260.750 286.570 M 403 363.092 L 403 440.185 440.250 439.709 C 479.365 439.208, 480.066 439.136, 495.489 434.004 C 504.649 430.955, 515.998 423.126, 521.988 415.723 C 528.492 407.685, 532.280 400.398, 535.634 389.473 C 538.194 381.138, 538.393 379.220, 538.445 362.500 C 538.508 341.781, 537.400 335.929, 530.783 322.056 C 525.609 311.209, 513.968 299.149, 503.965 294.272 C 489.839 287.386, 478.803 286.082, 434.250 286.034 L 403 286 403 363.092 M 558 363 L 558 440 577.043 440 L 596.085 440 595.793 410.499 L 595.500 380.999 623.750 380.999 L 652 381 652.125 367.500 C 652.194 360.075, 652.306 353.212, 652.375 352.250 C 652.491 350.629, 650.442 350.478, 624.530 350.197 C 609.147 350.030, 596.455 349.789, 596.327 349.660 C 596.199 349.532, 596.028 342.469, 595.947 333.964 L 595.800 318.500 629.900 318.237 L 664 317.974 664 301.987 L 664 286 611 286 L 558 286 558 363 M 299 339.500 L 299 361 311.841 361 C 330.781 361, 337.730 358.321, 342.075 349.345 C 345.363 342.553, 345.251 334.810, 341.778 328.884 C 340.295 326.354, 337.909 323.515, 336.476 322.576 C 332.387 319.897, 321.479 318.036, 309.750 318.017 L 299 318 299 339.500 M 440 363.353 L 440 409 442.750 408.965 C 444.262 408.945, 451.489 408.516, 458.808 408.011 C 474.493 406.929, 480.670 404.678, 488.176 397.311 C 496.802 388.844, 500.555 376.571, 499.739 359.500 C 498.753 338.856, 489.700 325.366, 473.500 320.396 C 470.588 319.503, 462.550 318.621, 454.250 318.284 L 440 317.706 440 363.353 M 676 513.401 C 655.925 517.459, 575.150 533.670, 496.500 549.424 C 365.935 575.579, 352.883 578.369, 346.409 581.511 C 337.671 585.751, 331.058 592.546, 326.685 601.777 C 323.925 607.604, 323.459 609.767, 323.190 618 C 322.910 626.560, 323.722 631.806, 331.392 671 C 336.074 694.925, 342.202 726.650, 345.010 741.500 C 354.850 793.530, 357.805 807.081, 360.518 812.626 C 364.652 821.076, 372.020 828.406, 380.681 832.687 C 390.614 837.596, 400.543 838.263, 416.034 835.060 C 459.921 825.988, 613.875 794.859, 708.500 775.925 C 770.190 763.581, 773.267 762.638, 782.725 753.180 C 789.065 746.840, 794.424 736.341, 795.956 727.262 C 797.297 719.309, 797.023 717.270, 789.131 676.500 C 786.363 662.200, 779.353 625.433, 773.552 594.795 C 767.752 564.157, 762.091 536.769, 760.973 533.931 C 756.639 522.937, 748.909 514.729, 738.123 509.670 C 732.398 506.984, 730.212 506.526, 722 506.293 C 713.540 506.052, 708.504 506.830, 676 513.401 M 717 537.799 C 715.625 537.997, 638.225 553.442, 545 572.121 C 451.775 590.800, 373.078 606.548, 370.117 607.117 C 359.761 609.106, 355.475 611.952, 354.427 617.537 C 354.050 619.548, 355.530 629.516, 358.375 644.127 C 363.051 668.145, 367.666 692.110, 380.011 756.500 C 383.912 776.850, 387.561 794.948, 388.119 796.717 C 388.677 798.487, 390.488 801.074, 392.143 802.467 C 395.754 805.505, 400.384 805.742, 411.185 803.442 C 422.813 800.965, 617.176 761.740, 664 752.420 C 687.375 747.767, 717.975 741.677, 732 738.885 C 746.025 736.094, 758.730 733.085, 760.234 732.199 C 763.052 730.538, 766 725.544, 766 722.429 C 766 720.724, 764.095 710.813, 743.433 605 C 730.978 541.221, 731.488 543.310, 727.594 540.078 C 725.669 538.480, 720.294 537.324, 717 537.799 M 503.661 604.847 L 489.822 607.500 490.340 610.500 C 490.624 612.150, 493.378 626.325, 496.460 642 C 499.541 657.675, 505.131 686.145, 508.880 705.266 C 512.630 724.387, 515.977 740.310, 516.318 740.652 C 517.045 741.378, 539.648 737.148, 542.315 735.787 C 543.526 735.169, 543.821 734.468, 543.203 733.680 C 542.694 733.031, 542.027 730.868, 541.722 728.873 L 541.166 725.247 546.155 728.604 C 552.501 732.875, 557.809 734.399, 566.086 734.327 C 587.202 734.144, 604.001 719.254, 608.197 697 C 609.558 689.779, 608.560 670.955, 606.447 664 C 601.699 648.377, 592.576 636.378, 581.180 630.768 C 574.823 627.638, 574.055 627.502, 563.021 627.545 C 547.445 627.606, 542.115 629.648, 532.750 639.143 C 526.928 645.046, 526 645.663, 526 643.630 C 526 642.334, 524.644 633.674, 522.987 624.386 C 519.102 602.615, 518.966 601.982, 518.171 602.097 C 517.802 602.150, 511.273 603.387, 503.661 604.847 M 654 606.560 C 627.136 612.351, 612.086 634.524, 615.052 663.944 C 616.673 680.021, 621.684 691.524, 631.221 701.061 C 640.388 710.228, 651.084 714.275, 665.732 714.119 C 680.226 713.965, 695.094 708.748, 704.856 700.391 C 712.594 693.768, 719 679.878, 719 669.723 C 719 666.177, 718.818 665.923, 716.750 666.582 C 715.513 666.976, 708.436 668.475, 701.025 669.914 L 687.550 672.531 686.805 676.895 C 686.395 679.296, 685.336 682.364, 684.452 683.714 C 680.901 689.133, 668.161 691.765, 660.657 688.630 C 655.806 686.603, 650.384 679.635, 647.803 672.111 C 645.991 666.829, 645.532 663.289, 645.518 654.500 C 645.502 644.602, 645.751 643.052, 648.003 639.030 C 651.478 632.825, 656.671 630.038, 664.800 630.016 C 672.142 629.997, 675.828 631.597, 679.482 636.388 L 682.068 639.778 689.284 637.960 C 693.253 636.959, 699.247 635.613, 702.605 634.969 C 711.456 633.270, 711.670 633.044, 709.597 627.615 C 705.727 617.480, 693.697 608.354, 681.114 606.005 C 673.746 604.630, 661.821 604.874, 654 606.560 M 441.728 647.677 C 417.554 651.760, 402.144 666.320, 401.756 685.445 C 401.695 688.488, 401.949 691.282, 402.321 691.654 C 402.693 692.027, 407.611 691.322, 413.249 690.089 C 431.445 686.109, 430.490 686.528, 430.576 682.497 C 430.678 677.734, 433.765 673.863, 439.103 671.804 C 448.260 668.273, 458.218 670.724, 461.326 677.274 C 465.069 685.162, 463.712 686.265, 443 692.177 C 426.618 696.853, 418.741 700.663, 412.630 706.868 C 407.556 712.020, 404 720.217, 404 726.765 C 404 732.740, 406.735 741.755, 409.978 746.468 C 413.367 751.394, 420.518 756.488, 426.441 758.196 C 432.821 760.036, 446.536 759.443, 453.500 757.025 C 461.611 754.210, 468.975 749.114, 472 744.225 L 474.500 740.183 476.111 744.842 C 477.060 747.589, 478.291 749.436, 479.111 749.343 C 482.739 748.934, 501.592 744.589, 502.280 744.004 C 503.064 743.337, 491.177 681.899, 488.429 672.419 C 482.720 652.723, 465.588 643.647, 441.728 647.677 M 547.047 652.305 C 542.228 653.841, 536.703 659.710, 535.129 664.964 C 531.118 678.353, 535.728 700.386, 543.996 707.343 C 552.060 714.128, 569.061 712.660, 574.257 704.730 C 580.379 695.387, 580.421 678.373, 574.355 664.857 C 569.141 653.239, 558.893 648.528, 547.047 652.305 M 455.111 706.060 C 438.130 711.384, 432.277 716.415, 433.390 724.728 C 434.125 730.223, 435.708 732.634, 439.881 734.614 C 446.970 737.978, 460.735 733.653, 466.250 726.330 C 468.459 723.396, 469 721.617, 469 717.282 C 469 710.700, 467.172 702.979, 465.631 703.058 C 465.009 703.090, 460.275 704.440, 455.111 706.060" stroke="none" fill="#fb3946" fill-rule="evenodd"/></svg>