<svg xmlns="http://www.w3.org/2000/svg" width="1024" height="1024" viewBox="0 0 1024 1024" version="1.1"><path d="M 260 389.500 L 260 477 280 477 L 300 477 300 448.600 L 300 420.200 325.250 419.753 C 352.874 419.265, 355.899 418.757, 367.494 412.655 C 370.791 410.920, 376.458 406.575, 380.088 403 C 391.985 391.281, 397.773 374.923, 396.734 355.954 C 395.357 330.807, 382.331 313.996, 358.105 306.098 C 348.428 302.943, 333.983 302.002, 295.250 302.001 L 260 302 260 389.500 M 425 389.598 L 425 477.196 467.750 476.708 C 501.641 476.321, 511.862 475.897, 517.071 474.663 C 549.361 467.012, 572.454 444.754, 580.007 414 C 582.699 403.038, 583.612 385.134, 582.071 373.500 C 580.757 363.575, 576.191 348.739, 572.513 342.445 C 561.689 323.918, 545.131 311.373, 524.500 306.066 C 512.710 303.033, 496.479 302.034, 458.750 302.016 L 425 302 425 389.598 M 612.924 302.409 C 612.691 302.642, 612.617 342.021, 612.761 389.916 L 613.022 477 633.011 477 L 653 477 653 442.500 L 653 408 687.500 408 L 722 408 722 391 L 722 374 687.500 374 L 653 374 653 355.500 L 653 337 695.524 337 L 738.047 337 737.774 319.750 L 737.500 302.500 675.424 302.242 C 641.282 302.101, 613.157 302.176, 612.924 302.409 M 300 362.108 L 300 387.216 318.750 386.818 C 335.588 386.460, 338.010 386.189, 342.500 384.156 C 353.164 379.329, 356.412 374.059, 356.463 361.500 C 356.505 351.307, 354.445 345.877, 349.089 342.063 C 342.954 337.695, 338.808 337, 318.874 337 L 300 337 300 362.108 M 465 389.649 L 465 442.298 483.250 441.710 C 495.056 441.330, 503.590 440.561, 507.419 439.530 C 525.775 434.591, 537.197 422.032, 540.580 403.069 C 545.246 376.913, 536.452 352.095, 519.187 342.699 C 510.970 338.226, 503.415 337.031, 483.250 337.015 L 465 337 465 389.649 M 603 535.280 C 600.740 536.410, 600.196 538.019, 597.340 552.015 C 595.602 560.532, 594.140 568.905, 594.090 570.622 C 594.009 573.434, 593.628 573.804, 590.250 574.344 C 580.862 575.846, 563.946 582.803, 551.645 590.222 C 546.941 593.059, 544.385 594.065, 543.501 593.428 C 526.552 581.213, 514.039 573.023, 512.306 573.013 C 510.829 573.004, 505.340 577.628, 495.501 587.169 C 487.465 594.962, 480.494 602.078, 480.010 602.981 C 479.357 604.202, 481.115 607.823, 486.845 617.062 C 491.087 623.903, 496.003 631.599, 497.769 634.165 L 500.979 638.830 497.383 644.165 C 490.311 654.656, 482.989 672.223, 481.472 682.337 C 481.088 684.902, 480.402 687, 479.948 687 C 477.729 687, 449.085 692.190, 446.250 693.105 C 442.468 694.327, 442.789 691.631, 442.987 720.500 C 443.067 732.050, 443.499 741.875, 443.949 742.333 C 444.398 742.791, 451.456 744.251, 459.633 745.579 C 467.810 746.906, 475.870 748.222, 477.545 748.503 C 480.311 748.967, 480.693 749.505, 481.715 754.378 C 483.392 762.370, 490.337 779.367, 495.858 788.987 L 500.729 797.474 498.614 800.684 C 497.451 802.449, 493.007 809.082, 488.738 815.425 C 477.052 832.788, 477.238 830.671, 486.569 840.142 C 490.931 844.570, 498.443 851.759, 503.263 856.116 C 513.528 865.396, 510.787 865.700, 529.642 853.198 C 536.164 848.874, 542.429 844.839, 543.564 844.232 C 545.296 843.306, 547.361 844.018, 556.417 848.664 C 569.640 855.447, 578.427 859.102, 587.174 861.458 L 593.847 863.256 594.528 868.378 C 595.671 876.989, 599.889 896.924, 601.012 899.022 C 602.020 900.907, 603.179 901, 625.557 901 C 648.958 901, 649.046 900.992, 650.015 898.750 C 651.251 895.886, 655.995 871.711, 656.015 868.169 C 656.024 866.701, 656.361 865.050, 656.765 864.500 C 657.169 863.950, 662.900 861.715, 669.500 859.534 C 680.047 856.048, 693.037 850.141, 702.540 844.507 L 705.579 842.705 712.740 847.815 C 721.049 853.743, 734.676 862.337, 737.326 863.319 C 738.675 863.819, 740.768 862.503, 745.326 858.290 C 758.468 846.144, 772 832.483, 772 831.361 C 772 830.715, 767.080 822.907, 761.067 814.009 L 750.133 797.830 753.432 792.665 C 760.473 781.638, 770 758.359, 770 752.182 C 770 751.047, 770.458 749.835, 771.018 749.489 C 771.579 749.142, 779.309 747.771, 788.197 746.440 C 805.890 743.792, 808.149 743.273, 809.221 741.615 C 810.074 740.295, 810.219 699.721, 809.382 696.387 C 808.551 693.074, 807.253 692.734, 777.347 687.987 L 770.195 686.852 769.542 683.176 C 767.472 671.512, 760.462 654.028, 753.317 642.709 L 750.841 638.788 756.232 630.644 C 759.198 626.165, 764.047 618.280, 767.009 613.123 L 772.395 603.747 756.771 588.373 C 745.149 576.937, 740.517 573, 738.686 573 C 736.085 573, 731.439 575.937, 716.045 587.313 L 706.589 594.301 703.545 592.497 C 689.973 584.457, 675.081 577.870, 662.750 574.452 C 657.324 572.948, 656.995 572.679, 656.917 569.679 C 656.871 567.931, 655.409 559.525, 653.667 551 L 650.500 535.500 644.500 534.859 C 633.271 533.658, 605.683 533.938, 603 535.280 M 610.500 639.619 C 601.812 641.425, 587.496 648.207, 579.323 654.388 C 567.240 663.527, 555.935 679.329, 551.343 693.500 C 547.561 705.170, 546.899 724.156, 549.859 736.043 C 556.519 762.798, 576.526 783.517, 604.043 792.158 C 610.428 794.163, 613.584 794.500, 626 794.500 C 638.432 794.500, 641.568 794.165, 647.988 792.149 C 694.039 777.690, 716.374 728.364, 696.434 685.160 C 680.910 651.523, 644.935 632.458, 610.500 639.619" stroke="none" fill="#e33f40" fill-rule="evenodd"/><path d="M 204 69.551 C 200.425 70.317, 193.359 72.990, 188.299 75.491 C 171.763 83.664, 159.026 98.969, 153.341 117.500 C 151.567 123.282, 151.500 137.304, 151.500 504 C 151.500 870.171, 151.569 884.745, 153.336 891 C 156.566 902.432, 162.625 912.660, 171.477 921.625 C 178.194 928.426, 181.047 930.492, 189 934.310 C 194.225 936.819, 201.425 939.463, 205 940.186 C 214.484 942.103, 795.033 942.133, 802.500 940.217 C 816.096 936.727, 827.494 930.380, 836.959 921.028 C 844.865 913.218, 849.861 905.286, 853.676 894.490 L 856.500 886.500 856.764 591 C 857.059 261.188, 857.607 286.865, 849.933 271 L 845.822 262.500 756.161 172.936 C 700.972 117.806, 664.193 81.821, 660.500 79.338 C 653.349 74.532, 643.723 70.573, 635.566 69.083 C 631.419 68.326, 566.538 68.024, 420.066 68.079 C 245.012 68.146, 209.430 68.388, 204 69.551 M 211.041 94.733 C 196.684 97.423, 183.288 109.625, 178.950 123.963 C 176.993 130.432, 176.975 134.387, 177.236 506 C 177.494 872.649, 177.545 881.618, 179.407 886.500 C 184.014 898.578, 192.675 907.603, 204.186 912.322 L 209.500 914.500 395.841 914.765 L 582.182 915.031 579.841 911.265 C 578.345 908.858, 576.594 902.866, 574.988 894.654 L 572.477 881.807 566.749 879.477 C 563.599 878.196, 557.873 875.542, 554.025 873.581 L 547.028 870.015 536.264 877.146 C 521.090 887.199, 516.028 889.400, 509.783 888.661 C 507.040 888.336, 502.929 886.965, 500.648 885.614 C 494.502 881.975, 457.659 845.251, 455.588 840.699 C 451.157 830.964, 452.342 826.279, 463.504 809.406 L 471.997 796.568 468.089 788.534 C 465.939 784.115, 463.600 778.700, 462.891 776.500 C 462.182 774.300, 461.129 771.971, 460.551 771.325 C 459.973 770.679, 454.128 769.197, 447.563 768.033 C 434.041 765.635, 430.161 764.094, 425.231 759.164 C 418.277 752.210, 418.046 750.908, 418.022 718.428 C 417.996 684.507, 418.364 682.490, 425.756 675.984 C 431.528 670.903, 435.629 669.707, 458.544 666.423 C 461.207 666.041, 461.745 665.402, 462.835 661.327 C 463.520 658.765, 465.947 652.652, 468.228 647.743 C 471.070 641.626, 472.080 638.402, 471.437 637.497 C 470.922 636.771, 467.477 631.719, 463.783 626.271 C 447.402 602.115, 447.861 600.331, 478.241 570.087 C 489.519 558.859, 500.453 548.798, 502.538 547.728 C 505.422 546.249, 507.732 545.885, 512.191 546.207 C 517.649 546.602, 518.988 547.265, 531.605 555.816 C 539.058 560.867, 545.770 565, 546.521 565 C 547.272 565, 549.504 564.045, 551.482 562.878 C 553.459 561.711, 558.998 559.305, 563.789 557.531 L 572.500 554.306 574.653 540.291 C 576.970 525.209, 578.206 521.860, 583.364 516.703 C 590.485 509.582, 590.965 509.500, 625.500 509.500 C 655.431 509.500, 656.640 509.575, 660.568 511.678 C 665.309 514.215, 671.032 520.229, 672.778 524.507 C 673.449 526.153, 675.012 533.526, 676.249 540.891 L 678.500 554.282 682.645 555.504 C 684.925 556.177, 690.635 558.588, 695.336 560.863 C 700.036 563.139, 704.481 565, 705.213 565 C 705.945 565, 708.109 563.721, 710.022 562.157 C 711.935 560.593, 717.726 556.448, 722.891 552.945 C 731.500 547.107, 732.799 546.544, 738.481 546.182 C 743.176 545.883, 745.573 546.246, 748.366 547.679 C 752.493 549.796, 791.987 588.692, 795.127 593.732 C 796.235 595.509, 797.388 599.359, 797.690 602.287 C 798.355 608.731, 797.094 611.558, 786.397 627.604 L 778.995 638.707 782.392 646.104 C 786.031 654.027, 789 662.243, 789 664.388 C 789 665.291, 792.390 666.251, 799.750 667.431 C 817.423 670.266, 823.496 672.747, 829.224 679.475 C 830.858 681.393, 830.937 671.216, 830.724 486.500 L 830.500 291.500 827.585 285 C 824.845 278.887, 819.424 273.242, 736.585 190.214 C 688.138 141.657, 646.628 100.824, 644.340 99.475 C 634.527 93.688, 647.090 93.988, 421.040 94.136 C 306.893 94.211, 212.394 94.480, 211.041 94.733 M 603 535.280 C 600.740 536.410, 600.196 538.019, 597.340 552.015 C 595.602 560.532, 594.140 568.905, 594.090 570.622 C 594.009 573.434, 593.628 573.804, 590.250 574.344 C 580.862 575.846, 563.946 582.803, 551.645 590.222 C 546.941 593.059, 544.385 594.065, 543.501 593.428 C 526.552 581.213, 514.039 573.023, 512.306 573.013 C 510.829 573.004, 505.340 577.628, 495.501 587.169 C 487.465 594.962, 480.494 602.078, 480.010 602.981 C 479.357 604.202, 481.115 607.823, 486.845 617.062 C 491.087 623.903, 496.003 631.599, 497.769 634.165 L 500.979 638.830 497.383 644.165 C 490.311 654.656, 482.989 672.223, 481.472 682.337 C 481.088 684.902, 480.402 687, 479.948 687 C 477.729 687, 449.085 692.190, 446.250 693.105 C 442.468 694.327, 442.789 691.631, 442.987 720.500 C 443.067 732.050, 443.499 741.875, 443.949 742.333 C 444.398 742.791, 451.456 744.251, 459.633 745.579 C 467.810 746.906, 475.870 748.222, 477.545 748.503 C 480.311 748.967, 480.693 749.505, 481.715 754.378 C 483.392 762.370, 490.337 779.367, 495.858 788.987 L 500.729 797.474 498.614 800.684 C 497.451 802.449, 493.007 809.082, 488.738 815.425 C 477.052 832.788, 477.238 830.671, 486.569 840.142 C 490.931 844.570, 498.443 851.759, 503.263 856.116 C 513.528 865.396, 510.787 865.700, 529.642 853.198 C 536.164 848.874, 542.429 844.839, 543.564 844.232 C 545.296 843.306, 547.361 844.018, 556.417 848.664 C 569.640 855.447, 578.427 859.102, 587.174 861.458 L 593.847 863.256 594.528 868.378 C 595.671 876.989, 599.889 896.924, 601.012 899.022 C 602.020 900.907, 603.179 901, 625.557 901 C 648.958 901, 649.046 900.992, 650.015 898.750 C 651.251 895.886, 655.995 871.711, 656.015 868.169 C 656.024 866.701, 656.361 865.050, 656.765 864.500 C 657.169 863.950, 662.900 861.715, 669.500 859.534 C 680.047 856.048, 693.037 850.141, 702.540 844.507 L 705.579 842.705 712.740 847.815 C 721.049 853.743, 734.676 862.337, 737.326 863.319 C 738.675 863.819, 740.768 862.503, 745.326 858.290 C 758.468 846.144, 772 832.483, 772 831.361 C 772 830.715, 767.080 822.907, 761.067 814.009 L 750.133 797.830 753.432 792.665 C 760.473 781.638, 770 758.359, 770 752.182 C 770 751.047, 770.458 749.835, 771.018 749.489 C 771.579 749.142, 779.309 747.771, 788.197 746.440 C 805.890 743.792, 808.149 743.273, 809.221 741.615 C 810.074 740.295, 810.219 699.721, 809.382 696.387 C 808.551 693.074, 807.253 692.734, 777.347 687.987 L 770.195 686.852 769.542 683.176 C 767.472 671.512, 760.462 654.028, 753.317 642.709 L 750.841 638.788 756.232 630.644 C 759.198 626.165, 764.047 618.280, 767.009 613.123 L 772.395 603.747 756.771 588.373 C 745.149 576.937, 740.517 573, 738.686 573 C 736.085 573, 731.439 575.937, 716.045 587.313 L 706.589 594.301 703.545 592.497 C 689.973 584.457, 675.081 577.870, 662.750 574.452 C 657.324 572.948, 656.995 572.679, 656.917 569.679 C 656.871 567.931, 655.409 559.525, 653.667 551 L 650.500 535.500 644.500 534.859 C 633.271 533.658, 605.683 533.938, 603 535.280 M 610.500 639.619 C 601.812 641.425, 587.496 648.207, 579.323 654.388 C 567.240 663.527, 555.935 679.329, 551.343 693.500 C 547.561 705.170, 546.899 724.156, 549.859 736.043 C 556.519 762.798, 576.526 783.517, 604.043 792.158 C 610.428 794.163, 613.584 794.500, 626 794.500 C 638.432 794.500, 641.568 794.165, 647.988 792.149 C 694.039 777.690, 716.374 728.364, 696.434 685.160 C 680.910 651.523, 644.935 632.458, 610.500 639.619 M 616.500 664.022 C 600.511 667.231, 585.923 678.352, 578.508 692.984 C 572.152 705.528, 570.729 721.726, 574.890 734.190 C 578.912 746.238, 587.875 757.806, 597.606 763.509 C 617.315 775.059, 643.148 772.715, 660.411 757.810 C 666.831 752.267, 674.190 740.882, 676.527 732.879 C 678.775 725.177, 679.044 711.607, 677.089 704.500 C 673.223 690.450, 661.514 675.578, 649.270 669.166 C 639.271 663.930, 626.750 661.965, 616.500 664.022 M 827.899 757.256 C 823.524 762.745, 816.715 765.686, 802.527 768.213 L 789.690 770.500 787.829 776 C 786.805 779.025, 784.236 784.921, 782.120 789.102 L 778.272 796.705 781.933 802.152 C 783.947 805.147, 788.266 811.812, 791.531 816.962 C 796.985 825.566, 797.467 826.788, 797.467 832.011 C 797.467 840.005, 795.167 843.095, 772.759 865.210 C 752.181 885.519, 747.220 889.017, 739.054 888.978 C 733.208 888.950, 728.403 886.721, 715.300 877.959 C 709.176 873.864, 704 871.064, 703.086 871.351 C 700.933 872.028, 678.956 881.711, 678.471 882.196 C 678.258 882.409, 676.956 888.350, 675.578 895.398 C 674.200 902.446, 672.171 909.740, 671.070 911.606 L 669.067 915 731.324 915 C 799.115 915, 800.357 914.910, 809.967 909.279 C 816.943 905.191, 823.781 897.683, 827.307 890.241 L 830.500 883.500 830.787 831 C 830.945 802.125, 830.945 772.986, 830.787 766.246 L 830.500 753.993 827.899 757.256" stroke="none" fill="#485159" fill-rule="evenodd"/></svg>