<svg xmlns="http://www.w3.org/2000/svg" width="1024" height="1024" viewBox="0 0 1024 1024" version="1.1"><path d="M 261.250 286.611 C 260.266 287.048, 260 303.413, 260 363.583 L 260 440 279.500 440 L 299 440 299 416.149 L 299 392.299 319.250 391.710 C 341.409 391.066, 346.959 390.069, 357.223 384.887 C 365.056 380.933, 374.649 371.328, 378.258 363.825 C 385.907 347.926, 385.924 327.448, 378.301 312.243 C 374.794 305.247, 365.616 296.651, 357.697 292.945 C 346.005 287.474, 340.207 286.824, 299.500 286.421 C 279.150 286.219, 261.938 286.305, 261.250 286.611 M 403 363.065 L 403 440.130 440.750 439.763 C 475.767 439.422, 479.064 439.239, 486.296 437.227 C 512.669 429.891, 528.696 413.675, 535.702 387.239 C 539.308 373.630, 539.539 351.839, 536.215 338.637 C 529.901 313.557, 512.580 295.491, 489.106 289.502 C 479.333 287.009, 463.298 286.034, 431.750 286.016 L 403 286 403 363.065 M 558.667 286.667 C 558.300 287.033, 558 321.683, 558 363.667 L 558 440 577 440 L 596 440 596 410.500 L 596 381 625.026 381 L 654.052 381 653.776 365.750 L 653.500 350.500 624.750 350.235 L 596 349.969 596 334.485 L 596 319 630 319 L 664 319 664 302.500 L 664 286 611.667 286 C 582.883 286, 559.033 286.300, 558.667 286.667 M 299 339.360 L 299 361 311.318 361 C 325.177 361, 332.089 359.479, 336.996 355.350 C 345.945 347.820, 346.817 333.061, 338.774 325.265 C 333.681 320.329, 328.277 318.875, 312.750 318.263 L 299 317.720 299 339.360 M 440 363.122 L 440 408 451.816 408 C 471.239 408, 480.501 405.300, 488.423 397.331 C 493.116 392.609, 497.625 383.378, 499.103 375.463 C 500.705 366.891, 499.738 350.787, 497.197 343.701 C 493.002 332.005, 484.426 323.579, 473.624 320.542 C 470.750 319.734, 462.242 318.913, 454.250 318.672 L 440 318.244 440 363.122 M 586.500 508.479 C 538.529 515.228, 497.456 542.755, 472.768 584.702 C 459.436 607.354, 453.130 629.993, 452.258 658.337 C 451.313 689.047, 456.208 711.289, 469.542 736.877 C 493.828 783.480, 544.973 817.319, 594.727 819.703 C 604.870 820.189, 607.721 819.996, 611.449 818.573 C 619.814 815.378, 624.424 806.771, 622.068 798.750 C 619.419 789.732, 612.602 785.838, 597.265 784.582 C 549.196 780.643, 506.500 744.888, 492.680 697 C 480.800 655.831, 492.575 610.366, 523.294 578.798 C 533.707 568.098, 542.867 561.348, 555.500 555.069 C 573.998 545.874, 588.138 542.632, 610 542.574 C 618.020 542.553, 627.852 543.141, 632 543.890 C 676.645 551.951, 713.487 586.294, 725.450 631 C 728.125 640.997, 730.823 661.510, 729.621 662.712 C 729.233 663.100, 717.628 661.351, 703.832 658.824 C 676.072 653.741, 674.065 653.757, 669.564 659.106 C 667.696 661.327, 667 663.302, 667 666.387 C 667 670.227, 668.563 672.896, 683.787 695.060 C 693.019 708.502, 705.957 727.352, 712.537 736.949 C 727.168 758.290, 731.396 763, 735.916 763 C 738.829 763, 742.113 760.142, 766.838 736.081 C 803.799 700.112, 812.718 690.981, 813.848 687.949 C 815.100 684.591, 814.328 680.942, 811.664 677.616 C 809.255 674.609, 805.332 673.733, 779.846 670.511 L 766.193 668.785 766.074 657.643 C 765.823 634.148, 760.894 613.578, 750.464 592.500 C 727.526 546.146, 685.250 515.692, 633.897 508.529 C 620.952 506.724, 599.137 506.700, 586.500 508.479" stroke="none" fill="#fb3342" fill-rule="evenodd"/><path d="M 223.920 134.010 C 208.725 137.749, 195.369 145.704, 183.419 158.134 C 171.005 171.047, 164.256 183.956, 160.919 201.171 C 159.055 210.788, 159 219.099, 159.008 491.785 C 159.013 672.550, 159.373 775.704, 160.018 781.500 C 164.126 818.405, 189.739 846.906, 225.631 854.510 C 231.420 855.736, 251.182 855.968, 351.290 855.983 C 467.940 856, 470.150 855.964, 473.982 854.009 C 476.128 852.914, 479.148 850.362, 480.692 848.337 C 483.119 845.155, 483.500 843.753, 483.500 838.005 C 483.500 832.423, 483.058 830.686, 480.749 827.197 C 479.236 824.910, 476.216 822.131, 474.039 821.020 C 470.134 819.028, 468.470 819, 353.790 818.985 C 227.171 818.969, 230.482 819.108, 219.917 813.358 C 208.575 807.185, 199.150 793.838, 197.069 781 C 195.631 772.134, 195.593 220.210, 197.029 211 C 198.564 201.153, 204.098 190.728, 211.916 182.952 C 219.217 175.690, 226.429 171.762, 235.553 170.075 C 239.570 169.332, 300.702 169, 433.281 169 L 625.194 169 631.847 175.451 C 653.933 196.865, 753.594 297.292, 754.652 299.200 C 755.654 301.004, 755.937 316.933, 755.965 373.054 L 756 444.607 758.597 449.818 C 765.487 463.645, 783.586 463.498, 790.532 449.559 L 793 444.607 793 374.392 C 793 317.188, 792.731 302.771, 791.549 296.593 C 789.959 288.283, 787.579 282.225, 783.590 276.335 C 779.752 270.667, 654.626 145.457, 647.720 140.373 C 644.340 137.885, 639.021 135.160, 635.299 134.011 C 628.867 132.024, 626.421 132.001, 430.145 132.072 C 239.803 132.142, 231.183 132.223, 223.920 134.010" stroke="none" fill="#898a8a" fill-rule="evenodd"/></svg>