<svg xmlns="http://www.w3.org/2000/svg" width="1024" height="1024" viewBox="0 0 1024 1024" version="1.1"><path d="M 257 359.931 L 257 436 274 436 L 291 436 291 409.638 L 291 383.277 307.750 382.723 C 318.477 382.369, 326.642 381.585, 330.458 380.543 C 354.637 373.943, 368 356.837, 368 332.484 C 368 308.675, 355.990 293.066, 332.500 286.344 C 327.488 284.910, 320.780 284.564, 291.750 284.244 L 257 283.861 257 359.931 M 391 359.999 L 391 436.122 431.750 435.807 L 472.500 435.491 482.382 432.075 C 505.811 423.978, 521.260 407.702, 528.018 384 C 531.102 373.183, 531.852 352.312, 529.564 341.018 C 523.989 313.504, 506.469 294.560, 479.499 286.880 C 471.891 284.714, 469.534 284.585, 431.250 284.240 L 391 283.877 391 359.999 M 557 359.955 L 557 435.911 574.586 436.205 C 584.258 436.367, 592.358 436.312, 592.586 436.083 C 592.814 435.854, 593 422.474, 593 406.350 L 593 377.033 619.569 376.766 L 646.139 376.500 646.104 364.250 C 646.085 357.512, 646.053 351.100, 646.034 350 C 646.001 348.051, 645.322 348, 619.500 348 L 593 348 593 330.500 L 593 313 624.500 313 L 656 313 656 298.500 L 656 284 606.500 284 L 557 284 557 359.955 M 291 332.864 L 291 355 300.451 355 C 317.309 355, 324.645 352.156, 328.750 344.030 C 333.386 334.854, 330.619 321.256, 323.099 316.257 C 318.453 313.168, 314.318 312.232, 301.750 311.421 L 291 310.727 291 332.864 M 428 360.393 C 428 402.543, 428.174 407.853, 429.570 408.389 C 432.385 409.469, 456.327 408.063, 463.207 406.413 C 476.502 403.226, 486.599 394.305, 490.977 381.878 C 493.792 373.886, 494.843 355.962, 493.035 346.772 C 489.548 329.050, 476.919 316.909, 459 314.052 C 455.425 313.482, 446.988 313.012, 440.250 313.008 L 428 313 428 360.393 M 733 495.960 C 725.351 496.639, 722.591 497.984, 719.950 502.314 C 718.116 505.322, 718.007 507.639, 718.004 543.717 L 718 581.934 678.055 582.217 L 638.109 582.500 634.528 585.972 C 629.607 590.742, 628.777 594.387, 629.166 609.503 C 629.525 623.473, 630.073 625.095, 635.943 629.557 C 638.360 631.394, 640.672 631.515, 678.250 631.783 L 718 632.066 718.004 669.783 C 718.007 705.655, 718.105 707.659, 719.995 710.759 C 723.824 717.041, 726.797 717.992, 742.602 717.996 C 755.584 718, 756.967 717.821, 760.010 715.750 C 761.828 714.513, 764.257 712.229, 765.408 710.677 C 767.446 707.927, 767.499 706.866, 767.471 669.927 L 767.442 632 806.073 632 C 844.571 632, 844.716 631.992, 848.102 629.730 C 853.934 625.834, 854.997 622.329, 854.998 606.984 C 855 591.746, 853.941 588.305, 848.001 584.250 C 844.722 582.012, 844.496 582, 805.949 582 L 767.194 582 767.112 543.834 C 767.031 505.890, 767.017 505.648, 764.765 502.338 C 763.519 500.507, 761.150 498.388, 759.500 497.628 C 755.972 496.004, 742.232 495.139, 733 495.960" stroke="none" fill="#fb2832" fill-rule="evenodd"/><path d="M 205.500 124.973 C 196.582 127.346, 191.957 129.326, 185.115 133.703 C 172.188 141.972, 162.337 154.354, 157.252 168.722 L 154.500 176.500 154.500 494 C 154.500 843.919, 153.952 815.719, 161.043 830.500 C 169.575 848.285, 185.310 861.044, 204.500 865.738 C 210.991 867.326, 228.888 867.473, 450.500 867.754 C 601.137 867.945, 692.458 867.698, 697.500 867.085 C 714.413 865.029, 726.556 859.223, 738.526 847.470 C 746.374 839.763, 752.592 828.816, 755.547 817.500 C 757.712 809.213, 758.757 774.324, 757.054 767.224 C 754.806 757.853, 745.727 752.267, 736.996 754.883 C 732.893 756.112, 727.332 761.639, 726.546 765.268 C 726.280 766.496, 725.930 777.175, 725.767 789 C 725.483 809.725, 725.380 810.698, 722.889 816 C 719.525 823.162, 713.712 829.013, 706.388 832.609 L 700.500 835.500 461 835.785 C 291.679 835.987, 219.628 835.752, 215.111 834.982 C 202.503 832.833, 194.006 826.452, 188.622 815.089 L 185.500 808.500 185.500 495.500 L 185.500 182.500 188.401 176.218 C 192.085 168.239, 200.608 160.107, 208.715 156.835 L 214.500 154.500 402.069 154.237 L 589.637 153.974 593.587 156.237 C 595.760 157.482, 625.720 186.850, 660.166 221.500 C 720.514 282.206, 722.853 284.698, 724.397 289.932 C 725.802 294.693, 726 304.226, 726 367.214 C 726 446.942, 725.736 443.710, 732.640 448.401 C 739.989 453.395, 749.701 451.379, 755.408 443.676 C 757.487 440.870, 757.500 440.395, 757.500 365.176 L 757.500 289.500 755.053 281.576 C 750.563 267.039, 748.476 264.680, 678.884 195.462 C 620.812 137.702, 613.863 131.114, 608 128.273 C 604.425 126.540, 599.475 124.655, 597 124.085 C 593.976 123.389, 530.161 123.059, 402.500 123.080 C 220.401 123.109, 212.209 123.188, 205.500 124.973 M 321.286 540.444 C 310.999 543.675, 300.941 552.624, 296.180 562.782 L 293.500 568.500 293.500 655.500 L 293.500 742.500 296.180 748.218 C 299.317 754.910, 306.483 762.935, 312.356 766.330 C 322.782 772.359, 315.448 772.058, 444.557 771.766 L 562.500 771.500 568 768.914 C 580.033 763.256, 589.593 750.984, 591.995 738.114 C 593.425 730.448, 593.346 581.243, 591.907 573.434 C 589.445 560.071, 580.512 548.508, 568.110 542.632 L 561.500 539.500 443.500 539.311 C 347.996 539.157, 324.697 539.374, 321.286 540.444 M 326.500 563.881 C 321.742 566.066, 319.610 568.296, 317.538 573.254 C 316.197 576.464, 316 587.292, 316 657.801 C 316 702.277, 316.311 738.978, 316.691 739.358 C 317.071 739.738, 331.838 725.638, 349.506 708.025 L 381.630 676 387.121 676 C 393.860 676, 394.911 676.735, 409.284 691.500 L 419.992 702.500 453.246 668.922 C 473.544 648.426, 487.760 634.842, 489.733 634.057 C 494.572 632.132, 499.790 633.498, 503.787 637.735 C 505.636 639.696, 515.740 652.370, 526.240 665.900 C 536.739 679.430, 550.543 697.196, 556.915 705.380 L 568.500 720.261 568.757 649.512 C 568.936 600.035, 568.680 577.521, 567.903 574.632 C 566.551 569.603, 560.541 563.558, 555.988 562.648 C 554.207 562.291, 502.744 562.010, 441.625 562.022 C 335.936 562.043, 330.304 562.134, 326.500 563.881 M 375.909 594.554 C 369.788 596.439, 362.278 603.207, 359.366 609.462 C 356.332 615.976, 356.142 626.513, 358.946 632.690 C 371.634 660.636, 413.873 652.520, 413.978 622.116 C 414.011 612.473, 412.368 608.295, 406.039 601.926 C 397.641 593.475, 387.481 590.989, 375.909 594.554" stroke="none" fill="#7a8182" fill-rule="evenodd"/></svg>